<svg id="Layer_1" data-name="Layer 1" xmlns="http://www.w3.org/2000/svg" viewBox="0 0 1280 780"><defs><style>.cls-1{fill:#551488;}</style></defs><title>BankAxept_Logo</title><path class="cls-1" d="M273.52,218c0,92.16-55.29,136.93-111.91,136.93-32.92,0-60.13-15.36-77.68-43.89v37.31H22V8.18H83.93V135c13.6-22.83,39.93-46.52,82.95-46.52C216,88.5,273.52,129.75,273.52,218ZM83.93,221c0,51.79,29.84,79,63.2,79,31.16,0,64.07-25.46,64.07-79,0-52.67-32.47-78.12-63.63-78.12C113.77,142.92,83.93,167.06,83.93,221Z"/><path class="cls-1" d="M305.12,219.28c0-88.21,56.18-130.78,112.8-130.78,30.28,0,56.18,11.41,76.8,39.5V95.52h61.89v252.8H494.72V312.77c-17.55,23.7-44.32,42.13-83.82,42.13C361.74,354.9,305.12,311.89,305.12,219.28Zm62.33,3.08c0,54,32.48,77.68,63.64,77.68,33.79,0,63.63-22.38,63.63-77.68,0-53.55-29.84-79.44-63.2-79.44C400.36,142.92,367.45,167.5,367.45,222.36Z"/><path class="cls-1" d="M678.18,203.92v144.4H616.3V95.52h61.88v37.3c17.55-32,50-44.32,78.12-44.32,43.89,0,85.58,22.38,85.58,90.41V348.32H780V202.61c0-42.14-20.63-57.5-47.84-57.5C701,145.11,678.18,163.54,678.18,203.92Z"/><path class="cls-1" d="M899.38,8.18h61.44V212.26l89.54-116.74h69.34l-87.34,104.89,101,147.91h-68.47l-69.34-104L960.82,286v62.32H899.38Z"/><path class="cls-1" d="M8,555.08c0-88.22,56.18-130.79,112.79-130.79,30.29,0,56.18,11.41,76.81,39.5V431.31h61.88v252.8H197.6V648.56c-17.56,23.7-44.33,42.13-83.83,42.13C64.62,690.69,8,647.68,8,555.08Zm62.32,3.07c0,54,32.48,77.68,63.64,77.68,33.79,0,63.64-22.38,63.64-77.68,0-53.55-29.85-79.44-63.2-79.44C103.24,478.71,70.32,503.29,70.32,558.15Z"/><path class="cls-1" d="M457.42,666.11l-34.23-34.67c-3.95-4.39-8.34-7.46-13.61-7.46-4.83,0-8.78,2.63-14,8.34l-81.2,86c-8.34,8.78-20.19,18.43-33.79,18.43s-23.26-9.65-23.26-22.38c0-11,7.46-21.07,16.68-30.28L358.23,595c21.95-23.26,37.75-26.77,50.47-26.77,12.29,0,28.09,2.63,52.67,27.65l33.35,34.23c8.78,9.22,17.56,19.31,17.56,32s-8.78,22.39-22.82,22.39C478.05,684.55,469.27,678.4,457.42,666.11ZM359.55,448l34.23,34.67c4,4.39,8.34,7.46,13.61,7.46,4.82,0,8.77-2.63,14-8.34l81.19-86c8.34-8.78,20.19-18.43,33.8-18.43s23.26,9.65,23.26,22.38c0,11-7.46,21.07-16.68,30.28l-84.26,89.1c-21.95,23.26-37.75,26.77-50.47,26.77-12.29,0-28.09-2.63-52.67-27.65L322.24,484c-8.77-9.22-17.55-19.32-17.55-32s8.78-22.39,22.82-22.39C338.92,429.55,347.7,435.7,359.55,448Z"/><path class="cls-1" d="M599.62,570.87c4,39.5,26.77,65.4,67.15,65.4,38.18,0,53.54-15.36,58.37-39.5l56.18,8.78c-9.66,58.37-65.83,85.14-112.36,85.14-74.61,0-132.54-50.47-132.54-133.86,0-81.19,54.42-132.54,126.4-132.54,67.59,0,115.86,52.66,115.86,127.27v19.31Zm1.75-44.32H719.43c-5.26-36.43-29.4-50.48-58.81-50.48C630.34,476.07,608.84,491.44,601.37,526.55Z"/><path class="cls-1" d="M888.41,431.31V466c17.12-23.7,43.89-41.69,83-41.69,49.16,0,106.65,41.25,106.65,129.47,0,92.16-55.3,136.93-111.91,136.93-30.29,0-57.06-11.85-77.69-39.94V771.89H826.53V431.31Zm0,125.52c0,51.79,29.85,79,63.2,79,31.6,0,64.08-25.46,64.08-79,0-52.67-32.48-78.12-63.64-78.12C918.26,478.71,888.41,502.85,888.41,556.83Z"/><path class="cls-1" d="M1143,431.31v-61l61.88-8.78v69.79h62.32v51.35h-62.32V605.11c0,18,5.71,27.21,24.58,27.21,11.41,0,21.94-1.76,33.8-4.39l8.77,47.84c-14.92,6.58-38.62,12.73-60.57,12.73-52.22,0-68.46-29.85-68.46-67.59V482.66h-43.45V431.31Z"/></svg>